<?xml version="1.0" encoding="iso-8859-1"?>
<!-- Generator: Adobe Illustrator 19.0.0, SVG Export Plug-In . SVG Version: 6.00 Build 0)  -->
<svg version="1.1" id="Capa_1" xmlns="http://www.w3.org/2000/svg" xmlns:xlink="http://www.w3.org/1999/xlink" x="0px" y="0px"
	 viewBox="0 0 512 512" style="enable-background:new 0 0 512 512;" xml:space="preserve">
<path style="fill:#FFC850;" d="M400,304H112l-79.721,29.556c-7.468,2.769-6.783,13.628,1.002,15.311
	C87.524,360.591,167.169,368,256,368s168.477-7.409,222.719-19.133c7.785-1.683,8.47-12.542,1.002-15.311L400,304z"/>
<path style="fill:#E1A546;" d="M363.297,304.704L361.76,304H112l-58.827,21.81c6.924,0.586,13.898,1.143,20.922,1.665
	c113.532,8.438,216.028,6.535,286.467-3.298C370.672,322.765,372.579,308.952,363.297,304.704z"/>
<path style="fill:#FFDC64;" d="M381.11,178.067C378.173,158.485,361.353,144,341.553,144H170.447
	c-19.8,0-36.62,14.485-39.557,34.066L112,304h288L381.11,178.067z"/>
<path style="fill:#FFC850;" d="M222.73,144h-52.282c-19.8,0-36.62,14.485-39.557,34.066L112,304h88l7.346-125.934
	C208.488,158.485,215.03,144,222.73,144z"/>
<polygon style="fill:#9B735A;" points="118,264 112,304 400,304 394,264 "/>
<path style="fill:#8C5F50;" d="M397.6,284.667H209.414c-4.601,0-8.254-3.872-7.986-8.466L202.334,264H118l-6,40h288L397.6,284.667z"
	/>
<path d="M507.107,335.699l-100.056-37.095L388.78,176.796c-3.522-23.48-23.312-40.522-47.054-40.522h-171.45
	c-23.743,0-43.532,17.042-47.054,40.522L104.95,298.604L4.893,335.699c-3.035,1.125-5.006,4.071-4.888,7.305
	c0.118,3.235,2.298,6.029,5.407,6.931C61.117,366.084,154.795,375.726,256,375.726s194.883-9.642,250.588-25.791
	c3.109-0.901,5.289-3.696,5.407-6.931C512.113,339.77,510.142,336.824,507.107,335.699z M256,360.726
	c-86.845,0-167.823-7.122-223.256-19.354l80.311-29.774h30.719c4.142,0,7.5-3.358,7.5-7.5s-3.358-7.5-7.5-7.5h-23.355l3.762-25.081
	h195.951c4.142,0,7.5-3.358,7.5-7.5s-3.358-7.5-7.5-7.5H126.431l11.624-77.494c2.412-16.078,15.962-27.748,32.22-27.748h171.45
	c16.258,0,29.808,11.669,32.22,27.747l11.624,77.495h-33.374c-4.142,0-7.5,3.358-7.5,7.5s3.358,7.5,7.5,7.5h35.624l3.762,25.081
	H175.84c-4.142,0-7.5,3.358-7.5,7.5s3.358,7.5,7.5,7.5h223.105l80.311,29.774C423.823,353.604,342.845,360.726,256,360.726z"/>
<g>
</g>
<g>
</g>
<g>
</g>
<g>
</g>
<g>
</g>
<g>
</g>
<g>
</g>
<g>
</g>
<g>
</g>
<g>
</g>
<g>
</g>
<g>
</g>
<g>
</g>
<g>
</g>
<g>
</g>
</svg>
