<svg aria-hidden="true" style="position: absolute; width: 0; height: 0; overflow: hidden;" version="1.1" xmlns="http://www.w3.org/2000/svg" xmlns:xlink="http://www.w3.org/1999/xlink">
<defs>
<symbol id="icon-activity" viewBox="0 0 24 24">
<title>activity</title>
<path d="M22 11h-4c-0.439 0-0.812 0.283-0.949 0.684l-2.051 6.154-5.051-15.154c-0.175-0.524-0.741-0.807-1.265-0.633-0.31 0.103-0.535 0.343-0.633 0.633l-2.772 8.316h-3.279c-0.552 0-1 0.448-1 1s0.448 1 1 1h4c0.423-0.003 0.81-0.267 0.949-0.684l2.051-6.154 5.051 15.154c0.098 0.29 0.323 0.529 0.632 0.632 0.524 0.175 1.090-0.109 1.265-0.632l2.773-8.316h3.279c0.552 0 1-0.448 1-1s-0.448-1-1-1z"></path>
</symbol>
<symbol id="icon-award" viewBox="0 0 24 24">
<title>award</title>
<path d="M14.986 15.424l0.75 5.652-3.221-1.933c-0.311-0.184-0.703-0.196-1.029 0l-3.221 1.933 0.751-5.651c0.921 0.371 1.929 0.575 2.984 0.575s2.063-0.205 2.986-0.576zM15.332 12.991c-0.058 0.030-0.113 0.065-0.163 0.105-0.92 0.573-2.005 0.904-3.169 0.904-1.657 0-3.156-0.67-4.243-1.757s-1.757-2.586-1.757-4.243 0.67-3.156 1.757-4.243 2.586-1.757 4.243-1.757 3.156 0.67 4.243 1.757 1.757 2.586 1.757 4.243-0.67 3.156-1.757 4.243c-0.278 0.278-0.583 0.529-0.911 0.748zM7.14 14.355l-1.131 8.513c-0.073 0.547 0.312 1.050 0.86 1.123 0.234 0.031 0.461-0.022 0.646-0.134l4.485-2.691 4.486 2.691c0.474 0.284 1.088 0.131 1.372-0.343 0.122-0.203 0.163-0.431 0.134-0.646l-1.13-8.515c0.28-0.215 0.546-0.448 0.795-0.697 1.446-1.446 2.343-3.447 2.343-5.656s-0.897-4.21-2.343-5.657-3.448-2.343-5.657-2.343-4.21 0.897-5.657 2.343-2.343 3.448-2.343 5.657 0.897 4.21 2.343 5.657c0.25 0.25 0.516 0.483 0.796 0.698z"></path>
</symbol>
<symbol id="icon-dollar-sign" viewBox="0 0 24 24">
<title>dollar-sign</title>
<path d="M11 11h-1.5c-0.691 0-1.314-0.279-1.768-0.732s-0.732-1.077-0.732-1.768 0.279-1.314 0.732-1.768 1.077-0.732 1.768-0.732h1.5zM13 13h1.5c0.691 0 1.314 0.279 1.768 0.732s0.732 1.077 0.732 1.768-0.279 1.314-0.732 1.768-1.077 0.732-1.768 0.732h-1.5zM17 4h-4v-3c0-0.552-0.448-1-1-1s-1 0.448-1 1v3h-1.5c-1.242 0-2.369 0.505-3.182 1.318s-1.318 1.94-1.318 3.182 0.505 2.369 1.318 3.182 1.94 1.318 3.182 1.318h1.5v5h-5c-0.552 0-1 0.448-1 1s0.448 1 1 1h5v3c0 0.552 0.448 1 1 1s1-0.448 1-1v-3h1.5c1.242 0 2.369-0.505 3.182-1.318s1.318-1.94 1.318-3.182-0.505-2.369-1.318-3.182-1.94-1.318-3.182-1.318h-1.5v-5h4c0.552 0 1-0.448 1-1s-0.448-1-1-1z"></path>
</symbol>
<symbol id="icon-shopping-cart" viewBox="0 0 24 24">
<title>shopping-cart</title>
<path d="M11 21c0-0.552-0.225-1.053-0.586-1.414s-0.862-0.586-1.414-0.586-1.053 0.225-1.414 0.586-0.586 0.862-0.586 1.414 0.225 1.053 0.586 1.414 0.862 0.586 1.414 0.586 1.053-0.225 1.414-0.586 0.586-0.862 0.586-1.414zM22 21c0-0.552-0.225-1.053-0.586-1.414s-0.862-0.586-1.414-0.586-1.053 0.225-1.414 0.586-0.586 0.862-0.586 1.414 0.225 1.053 0.586 1.414 0.862 0.586 1.414 0.586 1.053-0.225 1.414-0.586 0.586-0.862 0.586-1.414zM7.221 7h14.57l-1.371 7.191c-0.046 0.228-0.166 0.425-0.332 0.568-0.18 0.156-0.413 0.246-0.688 0.241h-9.734c-0.232 0.003-0.451-0.071-0.626-0.203-0.19-0.143-0.329-0.351-0.379-0.603zM1 2h3.18l0.848 4.239c0.108 0.437 0.502 0.761 0.972 0.761h1.221l-0.4-2h-0.821c-0.552 0-1 0.448-1 1 0 0.053 0.004 0.105 0.012 0.155 0.004 0.028 0.010 0.057 0.017 0.084l1.671 8.347c0.149 0.751 0.569 1.383 1.14 1.811 0.521 0.392 1.17 0.613 1.854 0.603h9.706c0.748 0.015 1.455-0.261 1.995-0.727 0.494-0.426 0.848-1.013 0.985-1.683l1.602-8.402c0.103-0.543-0.252-1.066-0.795-1.17-0.065-0.013-0.13-0.019-0.187-0.018h-16.18l-0.84-4.196c-0.094-0.462-0.497-0.804-0.98-0.804h-4c-0.552 0-1 0.448-1 1s0.448 1 1 1z"></path>
</symbol>
</defs>
</svg>
